<svg xmlns="http://www.w3.org/2000/svg" xmlns:xlink="http://www.w3.org/1999/xlink" width="1080" zoomAndPan="magnify" viewBox="0 0 810 809.999993" height="1080" preserveAspectRatio="xMidYMid meet" version="1.0"><defs><g/><clipPath id="858f283229"><path d="M 643.652344 249.269531 L 682.816406 249.269531 L 682.816406 288.433594 L 643.652344 288.433594 Z M 643.652344 249.269531 " clip-rule="nonzero"/></clipPath><clipPath id="4a7099a9c1"><path d="M 663.234375 249.269531 C 652.417969 249.269531 643.652344 258.035156 643.652344 268.851562 C 643.652344 279.667969 652.417969 288.433594 663.234375 288.433594 C 674.050781 288.433594 682.816406 279.667969 682.816406 268.851562 C 682.816406 258.035156 674.050781 249.269531 663.234375 249.269531 " clip-rule="nonzero"/></clipPath><clipPath id="86442410cd"><path d="M 377.234375 342.539062 L 458.035156 342.539062 L 458.035156 423.335938 L 377.234375 423.335938 Z M 377.234375 342.539062 " clip-rule="nonzero"/></clipPath><clipPath id="b6b6527fea"><path d="M 417.636719 342.539062 C 395.324219 342.539062 377.234375 360.625 377.234375 382.9375 C 377.234375 405.25 395.324219 423.335938 417.636719 423.335938 C 439.945312 423.335938 458.035156 405.25 458.035156 382.9375 C 458.035156 360.625 439.945312 342.539062 417.636719 342.539062 " clip-rule="nonzero"/></clipPath><clipPath id="b9fcf99c51"><path d="M 377.234375 342.539062 L 458.234375 342.539062 L 458.234375 423.539062 L 377.234375 423.539062 Z M 377.234375 342.539062 " clip-rule="nonzero"/></clipPath><clipPath id="8bdd013f10"><path d="M 417.734375 342.539062 C 395.367188 342.539062 377.234375 360.671875 377.234375 383.039062 C 377.234375 405.40625 395.367188 423.539062 417.734375 423.539062 C 440.105469 423.539062 458.234375 405.40625 458.234375 383.039062 C 458.234375 360.671875 440.105469 342.539062 417.734375 342.539062 " clip-rule="nonzero"/></clipPath><clipPath id="0bfd1c1e29"><path d="M 384.289062 282.558594 L 465.085938 282.558594 L 465.085938 363.355469 L 384.289062 363.355469 Z M 384.289062 282.558594 " clip-rule="nonzero"/></clipPath><clipPath id="bf19bbe2da"><path d="M 424.6875 282.558594 C 402.378906 282.558594 384.289062 300.644531 384.289062 322.957031 C 384.289062 345.269531 402.378906 363.355469 424.6875 363.355469 C 447 363.355469 465.085938 345.269531 465.085938 322.957031 C 465.085938 300.644531 447 282.558594 424.6875 282.558594 " clip-rule="nonzero"/></clipPath><clipPath id="5507aa6aa2"><path d="M 384.289062 282.558594 L 465.289062 282.558594 L 465.289062 363.558594 L 384.289062 363.558594 Z M 384.289062 282.558594 " clip-rule="nonzero"/></clipPath><clipPath id="f4ee72732e"><path d="M 424.789062 282.558594 C 402.421875 282.558594 384.289062 300.691406 384.289062 323.058594 C 384.289062 345.425781 402.421875 363.558594 424.789062 363.558594 C 447.15625 363.558594 465.289062 345.425781 465.289062 323.058594 C 465.289062 300.691406 447.15625 282.558594 424.789062 282.558594 " clip-rule="nonzero"/></clipPath><clipPath id="f7f8c85f2f"><path d="M 424.6875 229.664062 L 505.484375 229.664062 L 505.484375 310.460938 L 424.6875 310.460938 Z M 424.6875 229.664062 " clip-rule="nonzero"/></clipPath><clipPath id="8d380e49a3"><path d="M 465.085938 229.664062 C 442.777344 229.664062 424.6875 247.75 424.6875 270.0625 C 424.6875 292.375 442.777344 310.460938 465.085938 310.460938 C 487.398438 310.460938 505.484375 292.375 505.484375 270.0625 C 505.484375 247.75 487.398438 229.664062 465.085938 229.664062 " clip-rule="nonzero"/></clipPath><clipPath id="e53774205d"><path d="M 424.6875 229.664062 L 505.6875 229.664062 L 505.6875 310.664062 L 424.6875 310.664062 Z M 424.6875 229.664062 " clip-rule="nonzero"/></clipPath><clipPath id="e55a5577c6"><path d="M 465.1875 229.664062 C 442.820312 229.664062 424.6875 247.796875 424.6875 270.164062 C 424.6875 292.53125 442.820312 310.664062 465.1875 310.664062 C 487.554688 310.664062 505.6875 292.53125 505.6875 270.164062 C 505.6875 247.796875 487.554688 229.664062 465.1875 229.664062 " clip-rule="nonzero"/></clipPath><clipPath id="c5676dcbaf"><path d="M 417.636719 242.320312 L 672.011719 242.320312 L 672.011719 496.695312 L 417.636719 496.695312 Z M 417.636719 242.320312 " clip-rule="nonzero"/></clipPath><clipPath id="e6e55cdc95"><path d="M 544.824219 242.320312 C 474.578125 242.320312 417.636719 299.265625 417.636719 369.507812 C 417.636719 439.75 474.578125 496.695312 544.824219 496.695312 C 615.066406 496.695312 672.011719 439.75 672.011719 369.507812 C 672.011719 299.265625 615.066406 242.320312 544.824219 242.320312 " clip-rule="nonzero"/></clipPath><clipPath id="134358e0ee"><path d="M 417.636719 242.320312 L 671.886719 242.320312 L 671.886719 496.570312 L 417.636719 496.570312 Z M 417.636719 242.320312 " clip-rule="nonzero"/></clipPath><clipPath id="e225eb78bc"><path d="M 544.761719 242.320312 C 474.550781 242.320312 417.636719 299.234375 417.636719 369.445312 C 417.636719 439.652344 474.550781 496.570312 544.761719 496.570312 C 614.96875 496.570312 671.886719 439.652344 671.886719 369.445312 C 671.886719 299.234375 614.96875 242.320312 544.761719 242.320312 " clip-rule="nonzero"/></clipPath><clipPath id="591e12106a"><path d="M 551.875 322.957031 L 591.039062 322.957031 L 591.039062 362.121094 L 551.875 362.121094 Z M 551.875 322.957031 " clip-rule="nonzero"/></clipPath><clipPath id="7034e3caa9"><path d="M 571.457031 322.957031 C 560.644531 322.957031 551.875 331.722656 551.875 342.539062 C 551.875 353.355469 560.644531 362.121094 571.457031 362.121094 C 582.273438 362.121094 591.039062 353.355469 591.039062 342.539062 C 591.039062 331.722656 582.273438 322.957031 571.457031 322.957031 " clip-rule="nonzero"/></clipPath><clipPath id="0d08a6de82"><path d="M 610 295 L 637 295 L 637 321 L 610 321 Z M 610 295 " clip-rule="nonzero"/></clipPath><clipPath id="984ed3406f"><path d="M 609.066406 315.378906 L 633.34375 294.148438 L 643.21875 305.4375 L 618.941406 326.667969 Z M 609.066406 315.378906 " clip-rule="nonzero"/></clipPath><clipPath id="31dcd898d8"><path d="M 609.066406 315.378906 L 633.34375 294.148438 L 643.21875 305.4375 L 618.941406 326.667969 Z M 609.066406 315.378906 " clip-rule="nonzero"/></clipPath></defs><g clip-path="url(#858f283229)"><g clip-path="url(#4a7099a9c1)"><path fill="#525252" d="M 643.652344 249.269531 L 682.816406 249.269531 L 682.816406 288.433594 L 643.652344 288.433594 Z M 643.652344 249.269531 " fill-opacity="1" fill-rule="nonzero"/></g></g><g clip-path="url(#86442410cd)"><g clip-path="url(#b6b6527fea)"><path fill="#fffada" d="M 377.234375 342.539062 L 458.035156 342.539062 L 458.035156 423.335938 L 377.234375 423.335938 Z M 377.234375 342.539062 " fill-opacity="1" fill-rule="nonzero"/></g></g><g clip-path="url(#b9fcf99c51)"><g clip-path="url(#8bdd013f10)"><path stroke-linecap="butt" transform="matrix(0.751958, 0, 0, 0.751958, 377.236216, 342.538803)" fill="none" stroke-linejoin="miter" d="M 53.856936 0.000345408 C 24.111678 0.000345408 -0.0024479 24.114472 -0.0024479 53.859729 C -0.0024479 83.604987 24.111678 107.719114 53.856936 107.719114 C 83.607389 107.719114 107.71632 83.604987 107.71632 53.859729 C 107.71632 24.114472 83.607389 0.000345408 53.856936 0.000345408 " stroke="#a48a7e" stroke-width="8" stroke-opacity="1" stroke-miterlimit="4"/></g></g><g clip-path="url(#0bfd1c1e29)"><g clip-path="url(#bf19bbe2da)"><path fill="#fffada" d="M 384.289062 282.558594 L 465.085938 282.558594 L 465.085938 363.355469 L 384.289062 363.355469 Z M 384.289062 282.558594 " fill-opacity="1" fill-rule="nonzero"/></g></g><g clip-path="url(#5507aa6aa2)"><g clip-path="url(#f4ee72732e)"><path stroke-linecap="butt" transform="matrix(0.751958, 0, 0, 0.751958, 384.289878, 282.55773)" fill="none" stroke-linejoin="miter" d="M 53.8583 0.00114895 C 24.113042 0.00114895 -0.00108419 24.115275 -0.00108419 53.860533 C -0.00108419 83.605791 24.113042 107.719917 53.8583 107.719917 C 83.603558 107.719917 107.717684 83.605791 107.717684 53.860533 C 107.717684 24.115275 83.603558 0.00114895 53.8583 0.00114895 " stroke="#525252" stroke-width="8" stroke-opacity="1" stroke-miterlimit="4"/></g></g><g clip-path="url(#f7f8c85f2f)"><g clip-path="url(#8d380e49a3)"><path fill="#fffada" d="M 424.6875 229.664062 L 505.484375 229.664062 L 505.484375 310.460938 L 424.6875 310.460938 Z M 424.6875 229.664062 " fill-opacity="1" fill-rule="nonzero"/></g></g><g clip-path="url(#e53774205d)"><g clip-path="url(#e55a5577c6)"><path stroke-linecap="butt" transform="matrix(0.751958, 0, 0, 0.751958, 424.688694, 229.663588)" fill="none" stroke-linejoin="miter" d="M 53.857796 0.00063149 C 24.112538 0.00063149 -0.00158803 24.114758 -0.00158803 53.860016 C -0.00158803 83.605273 24.112538 107.7194 53.857796 107.7194 C 83.603054 107.7194 107.71718 83.605273 107.71718 53.860016 C 107.71718 24.114758 83.603054 0.00063149 53.857796 0.00063149 " stroke="#525252" stroke-width="8" stroke-opacity="1" stroke-miterlimit="4"/></g></g><g clip-path="url(#c5676dcbaf)"><g clip-path="url(#e6e55cdc95)"><path fill="#93f6c1" d="M 417.636719 242.320312 L 672.011719 242.320312 L 672.011719 496.695312 L 417.636719 496.695312 Z M 417.636719 242.320312 " fill-opacity="1" fill-rule="nonzero"/></g></g><g clip-path="url(#134358e0ee)"><g clip-path="url(#e225eb78bc)"><path stroke-linecap="butt" transform="matrix(0.749654, 0, 0, 0.749654, 417.634926, 242.320114)" fill="none" stroke-linejoin="miter" d="M 169.58053 0.00026451 C 75.922791 0.00026451 0.00239078 75.920664 0.00239078 169.578404 C 0.00239078 263.230933 75.922791 339.156543 169.58053 339.156543 C 263.233059 339.156543 339.158669 263.230933 339.158669 169.578404 C 339.158669 75.920664 263.233059 0.00026451 169.58053 0.00026451 " stroke="#525252" stroke-width="8" stroke-opacity="1" stroke-miterlimit="4"/></g></g><g clip-path="url(#591e12106a)"><g clip-path="url(#7034e3caa9)"><path fill="#525252" d="M 551.875 322.957031 L 591.039062 322.957031 L 591.039062 362.121094 L 551.875 362.121094 Z M 551.875 322.957031 " fill-opacity="1" fill-rule="nonzero"/></g></g><g clip-path="url(#0d08a6de82)"><g clip-path="url(#984ed3406f)"><g clip-path="url(#31dcd898d8)"><path fill="#525252" d="M 631.070312 316.0625 C 630.375 316.671875 629.632812 317.214844 628.84375 317.699219 C 628.054688 318.179688 627.230469 318.585938 626.371094 318.925781 C 625.511719 319.265625 624.632812 319.527344 623.730469 319.710938 C 622.828125 319.898438 621.917969 320.003906 621 320.03125 C 620.082031 320.058594 619.167969 320.007812 618.261719 319.875 C 617.355469 319.746094 616.46875 319.535156 615.597656 319.25 C 614.730469 318.964844 613.894531 318.605469 613.09375 318.171875 C 612.289062 317.742188 611.53125 317.242188 610.816406 316.675781 C 610.636719 316.535156 610.496094 316.367188 610.386719 316.167969 C 610.273438 315.972656 610.207031 315.761719 610.183594 315.535156 C 610.160156 315.308594 610.179688 315.085938 610.242188 314.867188 C 610.304688 314.648438 610.410156 314.445312 610.550781 314.269531 C 610.695312 314.089844 610.867188 313.941406 611.066406 313.828125 C 611.265625 313.71875 611.480469 313.648438 611.707031 313.617188 C 611.933594 313.589844 612.15625 313.605469 612.375 313.667969 C 612.59375 313.726562 612.792969 313.828125 612.96875 313.96875 C 613.53125 314.402344 614.128906 314.789062 614.757812 315.121094 C 615.386719 315.453125 616.042969 315.730469 616.722656 315.953125 C 617.402344 316.171875 618.097656 316.332031 618.804688 316.433594 C 619.515625 316.535156 620.226562 316.574219 620.945312 316.550781 C 621.664062 316.53125 622.375 316.449219 623.082031 316.304688 C 623.785156 316.160156 624.472656 315.960938 625.148438 315.699219 C 625.820312 315.4375 626.464844 315.121094 627.085938 314.75 C 627.703125 314.378906 628.289062 313.960938 628.835938 313.488281 C 628.875 313.457031 628.910156 313.425781 628.949219 313.390625 C 629.480469 312.910156 629.96875 312.390625 630.410156 311.828125 C 630.855469 311.261719 631.246094 310.667969 631.585938 310.039062 C 631.929688 309.410156 632.214844 308.757812 632.441406 308.082031 C 632.671875 307.40625 632.84375 306.714844 632.953125 306.011719 C 633.066406 305.308594 633.117188 304.601562 633.105469 303.890625 C 633.097656 303.179688 633.023438 302.476562 632.894531 301.78125 C 632.761719 301.085938 632.570312 300.40625 632.324219 299.746094 C 632.074219 299.082031 631.769531 298.449219 631.410156 297.839844 C 631.296875 297.644531 631.222656 297.433594 631.191406 297.210938 C 631.160156 296.984375 631.175781 296.761719 631.234375 296.539062 C 631.289062 296.320312 631.390625 296.117188 631.527344 295.933594 C 631.664062 295.75 631.832031 295.601562 632.03125 295.484375 C 632.226562 295.363281 632.4375 295.289062 632.664062 295.253906 C 632.890625 295.222656 633.113281 295.230469 633.335938 295.285156 C 633.554688 295.339844 633.753906 295.4375 633.9375 295.570312 C 634.117188 295.707031 634.265625 295.871094 634.382812 296.066406 C 634.839844 296.84375 635.226562 297.65625 635.542969 298.5 C 635.863281 299.347656 636.105469 300.214844 636.273438 301.105469 C 636.4375 301.992188 636.527344 302.890625 636.542969 303.796875 C 636.554688 304.707031 636.488281 305.609375 636.34375 306.507812 C 636.203125 307.40625 635.984375 308.285156 635.691406 309.148438 C 635.394531 310.011719 635.03125 310.847656 634.59375 311.648438 C 634.15625 312.453125 633.65625 313.210938 633.089844 313.929688 C 632.523438 314.648438 631.902344 315.316406 631.222656 315.929688 Z M 631.070312 316.0625 " fill-opacity="1" fill-rule="nonzero"/></g></g></g><path stroke-linecap="butt" transform="matrix(0.684653, 0, 0, 0.684653, 121.69283, 330.875893)" fill="none" stroke-linejoin="miter" d="M 86.794875 143.000002 L 114.403529 143.000002 C 152.236344 143.000002 182.982994 112.48157 182.982994 74.654461 C 182.982994 37.203911 153.217681 6.685479 115.767131 6.685479 L 86.190097 6.685479 C 68.936828 6.685479 55.671665 20.70376 55.671665 37.392191 L 55.671665 113.046409 C 55.671665 129.734839 69.501667 143.000002 86.794875 143.000002 Z M 117.872441 81.734919 L 113.844396 81.734919 L 113.844396 67.345784 L 117.872441 67.345784 C 122.282751 67.345784 125.375103 70.814695 125.375103 74.84274 C 125.375103 78.688211 122.282751 81.734919 117.872441 81.734919 Z M 219.058531 143.000002 C 236.540018 143.000002 249.993461 128.98172 249.993461 112.298995 L 249.993461 36.827352 C 249.993461 20.138921 236.540018 6.685479 219.058531 6.685479 C 202.181821 6.685479 188.728378 20.138921 188.728378 36.827352 L 188.728378 112.298995 C 188.728378 128.98172 202.181821 143.000002 219.058531 143.000002 Z M 392.429928 114.780864 L 392.429928 37.392191 C 392.429928 20.70376 381.697983 6.685479 361.540641 6.685479 C 347.339786 6.685479 334.822036 17.423129 331.963608 30.500012 L 343.306035 47.000162 C 343.870874 48.169779 342.136419 49.299457 341.571579 48.169779 L 310.26009 17.423129 C 304.497589 11.654923 296.059234 6.685479 286.822117 6.685479 C 269.945407 6.685479 256.12111 20.70376 256.12111 37.392191 L 256.12111 114.216025 C 256.12111 131.469295 269.945407 144.922737 286.822117 144.922737 C 301.262601 144.922737 313.729001 134.938206 316.58743 121.673044 L 305.667206 104.796333 C 305.056723 103.438437 306.791179 101.703982 307.401662 102.873598 L 340.401963 136.107823 C 346.352743 142.064309 354.231965 144.922737 362.105481 144.922737 C 378.229072 144.922737 392.429928 134.373367 392.429928 114.780864 Z M 467.901571 6.685479 C 429.886183 6.685479 398.198134 37.580471 398.198134 75.966713 C 398.198134 114.592585 429.886183 144.922737 467.901571 144.922737 C 506.481799 144.922737 537.981568 114.592585 537.981568 75.966713 C 537.981568 37.580471 506.481799 6.685479 467.901571 6.685479 Z M 467.901571 67.534064 C 472.311881 67.534064 475.963367 70.626416 475.963367 75.40758 C 475.963367 79.812184 472.311881 83.469375 467.901571 83.469375 C 464.061806 83.469375 460.404615 79.812184 460.404615 75.40758 C 460.404615 70.626416 464.061806 67.534064 467.901571 67.534064 Z M 467.901571 67.534064 " stroke="#ff9a9a" stroke-width="20.879999" stroke-opacity="1" stroke-miterlimit="4"/><g fill="#fffada" fill-opacity="1"><g transform="translate(159.808737, 428.781249)"><g><path d="M 21.296875 0 L 40.226562 0 C 66.121094 0 87.152344 -20.902344 87.152344 -46.796875 C 87.152344 -72.429688 66.777344 -93.332031 41.144531 -93.332031 L 20.902344 -93.332031 C 9.070312 -93.332031 0 -83.734375 0 -72.300781 L 0 -20.507812 C 0 -9.070312 9.464844 0 21.296875 0 Z M 42.589844 -41.933594 L 39.832031 -41.933594 L 39.832031 -51.792969 L 42.589844 -51.792969 C 45.613281 -51.792969 47.71875 -49.425781 47.71875 -46.664062 C 47.71875 -44.035156 45.613281 -41.933594 42.589844 -41.933594 Z M 42.589844 -41.933594 "/></g></g></g><g fill="#fffada" fill-opacity="1"><g transform="translate(250.905864, 428.781249)"><g><path d="M 20.769531 0 C 32.730469 0 41.933594 -9.597656 41.933594 -21.03125 L 41.933594 -72.695312 C 41.933594 -84.128906 32.730469 -93.332031 20.769531 -93.332031 C 9.203125 -93.332031 0 -84.128906 0 -72.695312 L 0 -21.03125 C 0 -9.597656 9.203125 0 20.769531 0 Z M 20.769531 0 "/></g></g></g><g fill="#fffada" fill-opacity="1"><g transform="translate(297.045966, 428.781249)"><g><path d="M 93.332031 -19.324219 L 93.332031 -72.300781 C 93.332031 -83.734375 85.96875 -93.332031 72.167969 -93.332031 C 62.441406 -93.332031 53.894531 -85.96875 51.925781 -77.03125 L 59.679688 -65.726562 C 60.074219 -64.9375 58.890625 -64.148438 58.496094 -64.9375 L 37.070312 -85.96875 C 33.125 -89.914062 27.34375 -93.332031 21.03125 -93.332031 C 9.464844 -93.332031 0 -83.734375 0 -72.300781 L 0 -19.71875 C 0 -7.886719 9.464844 1.316406 21.03125 1.316406 C 30.890625 1.316406 39.4375 -5.519531 41.40625 -14.589844 L 33.914062 -26.160156 C 33.519531 -27.078125 34.703125 -28.261719 35.097656 -27.472656 L 57.707031 -4.730469 C 61.78125 -0.65625 67.171875 1.316406 72.5625 1.316406 C 83.605469 1.316406 93.332031 -5.914062 93.332031 -19.324219 Z M 93.332031 -19.324219 "/></g></g></g><g fill="#fffada" fill-opacity="1"><g transform="translate(394.32139, 428.781249)"><g><path d="M 47.71875 -93.332031 C 21.691406 -93.332031 0 -72.167969 0 -45.878906 C 0 -19.457031 21.691406 1.316406 47.71875 1.316406 C 74.140625 1.316406 95.699219 -19.457031 95.699219 -45.878906 C 95.699219 -72.167969 74.140625 -93.332031 47.71875 -93.332031 Z M 47.71875 -51.660156 C 50.742188 -51.660156 53.238281 -49.558594 53.238281 -46.273438 C 53.238281 -43.25 50.742188 -40.75 47.71875 -40.75 C 45.089844 -40.75 42.589844 -43.25 42.589844 -46.273438 C 42.589844 -49.558594 45.089844 -51.660156 47.71875 -51.660156 Z M 47.71875 -51.660156 "/></g></g></g><path stroke-linecap="butt" transform="matrix(0.684653, 0, 0, 0.684653, 187.044032, 409.542479)" fill="none" stroke-linejoin="miter" d="M 48.591732 143.002021 L 76.200387 143.002021 C 114.033202 143.002021 144.779852 112.483589 144.779852 74.65648 C 144.779852 37.20593 115.014538 6.687498 77.563989 6.687498 L 47.986955 6.687498 C 30.733686 6.687498 17.468523 20.705779 17.468523 37.388504 L 17.468523 113.048428 C 17.468523 129.736858 31.298525 143.002021 48.591732 143.002021 Z M 79.669298 81.736938 L 75.641253 81.736938 L 75.641253 67.342097 L 79.669298 67.342097 C 84.079608 67.342097 87.17196 70.811009 87.17196 74.844759 C 87.17196 78.69023 84.079608 81.736938 79.669298 81.736938 Z M 220.228674 6.687498 C 182.213285 6.687498 150.525236 37.576784 150.525236 75.968732 C 150.525236 114.594604 182.213285 144.919051 220.228674 144.919051 C 258.803196 144.919051 290.30867 114.594604 290.30867 75.968732 C 290.30867 37.576784 258.803196 6.687498 220.228674 6.687498 Z M 220.228674 67.530377 C 224.633278 67.530377 228.290469 70.622729 228.290469 75.403893 C 228.290469 79.814203 224.633278 83.471394 220.228674 83.471394 C 216.383203 83.471394 212.726012 79.814203 212.726012 75.403893 C 212.726012 70.622729 216.383203 67.530377 220.228674 67.530377 Z M 365.186948 6.687498 C 327.171559 6.687498 295.48351 37.576784 295.48351 75.968732 C 295.48351 114.594604 327.171559 144.919051 365.186948 144.919051 C 403.767176 144.919051 435.266945 114.594604 435.266945 75.968732 C 435.266945 37.576784 403.767176 6.687498 365.186948 6.687498 Z M 365.186948 67.530377 C 369.591552 67.530377 373.248743 70.622729 373.248743 75.403893 C 373.248743 79.814203 369.591552 83.471394 365.186948 83.471394 C 361.341477 83.471394 357.689991 79.814203 357.689991 75.403893 C 357.689991 70.622729 361.341477 67.530377 365.186948 67.530377 Z M 471.570699 143.002021 L 499.179354 143.002021 C 537.006463 143.002021 567.758819 112.483589 567.758819 74.65648 C 567.758819 37.20593 537.993505 6.687498 500.53725 6.687498 L 470.960217 6.687498 C 453.712653 6.687498 440.441784 20.705779 440.441784 37.388504 L 440.441784 113.048428 C 440.441784 129.736858 454.271786 143.002021 471.570699 143.002021 Z M 502.648265 81.736938 L 498.614515 81.736938 L 498.614515 67.342097 L 502.648265 67.342097 C 507.05287 67.342097 510.145222 70.811009 510.145222 74.844759 C 510.145222 78.69023 507.05287 81.736938 502.648265 81.736938 Z M 695.423885 36.829371 C 695.423885 19.907017 681.405604 6.687498 664.29497 6.687498 L 622.673739 6.687498 C 567.171158 6.687498 558.544523 68.517419 596.143414 88.298202 C 601.158501 90.780071 606.732722 92.891086 612.078726 93.267645 C 613.624902 93.826779 613.248342 95.749515 611.702166 95.749515 C 602.704677 95.749515 592.720146 93.267645 585.217484 88.298202 C 576.779129 94.437262 573.127644 102.122498 573.127644 112.483589 C 573.127644 126.125311 587.328499 143.002021 603.64037 143.002021 L 645.68951 143.002021 C 706.578033 143.002021 710.982637 67.906937 659.702086 56.233593 C 658.15591 55.81139 658.766393 53.700375 660.266925 53.700375 C 667.952161 54.310858 675.454823 56.233593 681.782163 59.845141 C 690.831001 55.252257 695.423885 46.813902 695.423885 36.829371 Z M 695.423885 36.829371 " stroke="#579aff" stroke-width="20.639999" stroke-opacity="1" stroke-miterlimit="4"/><g fill="#daf2ff" fill-opacity="1"><g transform="translate(199.004062, 507.447835)"><g><path d="M 21.296875 0 L 40.226562 0 C 66.121094 0 87.152344 -20.902344 87.152344 -46.796875 C 87.152344 -72.429688 66.777344 -93.332031 41.144531 -93.332031 L 20.902344 -93.332031 C 9.070312 -93.332031 0 -83.734375 0 -72.300781 L 0 -20.507812 C 0 -9.070312 9.464844 0 21.296875 0 Z M 42.589844 -41.933594 L 39.832031 -41.933594 L 39.832031 -51.792969 L 42.589844 -51.792969 C 45.613281 -51.792969 47.71875 -49.425781 47.71875 -46.664062 C 47.71875 -44.035156 45.613281 -41.933594 42.589844 -41.933594 Z M 42.589844 -41.933594 "/></g></g></g><g fill="#daf2ff" fill-opacity="1"><g transform="translate(290.101188, 507.447835)"><g><path d="M 47.71875 -93.332031 C 21.691406 -93.332031 0 -72.167969 0 -45.878906 C 0 -19.457031 21.691406 1.316406 47.71875 1.316406 C 74.140625 1.316406 95.699219 -19.457031 95.699219 -45.878906 C 95.699219 -72.167969 74.140625 -93.332031 47.71875 -93.332031 Z M 47.71875 -51.660156 C 50.742188 -51.660156 53.238281 -49.558594 53.238281 -46.273438 C 53.238281 -43.25 50.742188 -40.75 47.71875 -40.75 C 45.089844 -40.75 42.589844 -43.25 42.589844 -46.273438 C 42.589844 -49.558594 45.089844 -51.660156 47.71875 -51.660156 Z M 47.71875 -51.660156 "/></g></g></g><g fill="#daf2ff" fill-opacity="1"><g transform="translate(389.348415, 507.447835)"><g><path d="M 47.71875 -93.332031 C 21.691406 -93.332031 0 -72.167969 0 -45.878906 C 0 -19.457031 21.691406 1.316406 47.71875 1.316406 C 74.140625 1.316406 95.699219 -19.457031 95.699219 -45.878906 C 95.699219 -72.167969 74.140625 -93.332031 47.71875 -93.332031 Z M 47.71875 -51.660156 C 50.742188 -51.660156 53.238281 -49.558594 53.238281 -46.273438 C 53.238281 -43.25 50.742188 -40.75 47.71875 -40.75 C 45.089844 -40.75 42.589844 -43.25 42.589844 -46.273438 C 42.589844 -49.558594 45.089844 -51.660156 47.71875 -51.660156 Z M 47.71875 -51.660156 "/></g></g></g><g fill="#daf2ff" fill-opacity="1"><g transform="translate(488.595643, 507.447835)"><g><path d="M 21.296875 0 L 40.226562 0 C 66.121094 0 87.152344 -20.902344 87.152344 -46.796875 C 87.152344 -72.429688 66.777344 -93.332031 41.144531 -93.332031 L 20.902344 -93.332031 C 9.070312 -93.332031 0 -83.734375 0 -72.300781 L 0 -20.507812 C 0 -9.070312 9.464844 0 21.296875 0 Z M 42.589844 -41.933594 L 39.832031 -41.933594 L 39.832031 -51.792969 L 42.589844 -51.792969 C 45.613281 -51.792969 47.71875 -49.425781 47.71875 -46.664062 C 47.71875 -44.035156 45.613281 -41.933594 42.589844 -41.933594 Z M 42.589844 -41.933594 "/></g></g></g><g fill="#daf2ff" fill-opacity="1"><g transform="translate(579.692769, 507.447835)"><g><path d="M 83.472656 -72.695312 C 83.472656 -84.261719 73.875 -93.332031 62.175781 -93.332031 L 33.652344 -93.332031 C -4.339844 -93.332031 -10.253906 -51.003906 15.511719 -37.464844 C 18.929688 -35.753906 22.742188 -34.308594 26.421875 -34.046875 C 27.472656 -33.652344 27.210938 -32.335938 26.160156 -32.335938 C 19.980469 -32.335938 13.144531 -34.046875 8.019531 -37.464844 C 2.234375 -33.257812 -0.261719 -28 -0.261719 -20.902344 C -0.261719 -11.566406 9.464844 0 20.636719 0 L 49.425781 0 C 91.097656 0 94.121094 -51.398438 59.023438 -59.417969 C 57.972656 -59.679688 58.367188 -61.125 59.417969 -61.125 C 64.675781 -60.730469 69.800781 -59.417969 74.140625 -56.917969 C 80.316406 -60.074219 83.472656 -65.859375 83.472656 -72.695312 Z M 83.472656 -72.695312 "/></g></g></g></svg>