<svg width="1460" height="694" viewBox="0 0 1460 694" fill="none" xmlns="http://www.w3.org/2000/svg">
<g filter="url(#filter0_d_50_3)">
<path d="M561.11 157.251C561.037 155.343 561 153.426 561 151.5C561 69.4857 627.71 3 710 3C730.273 3 749.6 7.0352 767.218 14.3437C844.742 19.5763 906 83.9084 906 162.5C906 164.426 905.963 166.343 905.89 168.251C949.08 183.207 980 223.34 980 270.5C980 286.854 976.282 302.364 969.623 316.271C1034.71 332.185 1083 390.722 1083 460.5C1083 464.794 1082.82 469.044 1082.46 473.246C1090.24 471.772 1098.28 471 1106.5 471C1162.98 471 1210.81 507.424 1227.07 557.704C1249.3 544.552 1275.27 537 1303 537C1384.45 537 1450.64 602.139 1451.98 683H7.80189C7.27173 677.905 7 672.734 7 667.5C7 585.486 73.7096 519 156 519C187.356 519 216.449 528.653 240.452 545.14L240.536 544.892C240.577 544.772 240.618 544.652 240.659 544.532C236.331 530.62 234 515.831 234 500.5C234 428.791 284.998 368.954 352.818 355.048C350.32 344.267 349 333.037 349 321.5C349 239.486 415.71 173 498 173C508.074 173 517.914 173.996 527.427 175.896C537.353 167.896 548.727 161.539 561.11 157.251Z" fill="url(#paint0_linear_50_3)" shape-rendering="crispEdges"/>
<path d="M351.019 353.894C283.266 368.507 232.5 428.591 232.5 500.5C232.5 514.858 234.524 528.747 238.305 541.898C214.652 526.47 186.375 517.5 156 517.5C72.8859 517.5 5.5 584.653 5.5 667.5C5.5 672.786 5.77443 678.009 6.30994 683.155L6.44988 684.5H7.80189H1451.98H1453.5L1453.48 682.975C1452.13 601.292 1385.27 535.5 1303 535.5C1275.66 535.5 1250.01 542.77 1227.91 555.477C1210.91 505.498 1162.97 469.5 1106.5 469.5C1098.86 469.5 1091.38 470.159 1084.11 471.422C1084.37 467.815 1084.5 464.173 1084.5 460.5C1084.5 390.647 1036.6 331.954 971.753 315.259C978.018 301.585 981.5 286.437 981.5 270.5C981.5 223.042 950.634 182.635 907.427 167.202C907.476 165.64 907.5 164.073 907.5 162.5C907.5 83.1927 845.751 18.2683 767.565 12.8639C749.83 5.54071 730.386 1.5 710 1.5C626.886 1.5 559.5 68.6525 559.5 151.5C559.5 153.073 559.524 154.64 559.573 156.202C547.656 160.458 536.681 166.613 527.034 174.289C517.638 172.459 507.931 171.5 498 171.5C414.886 171.5 347.5 238.653 347.5 321.5C347.5 332.621 348.715 343.46 351.019 353.894Z" stroke="#4B3A50" stroke-opacity="0.31" stroke-width="3" shape-rendering="crispEdges"/>
</g>
<defs>
<filter id="filter0_d_50_3" x="0" y="0" width="1459.03" height="694" filterUnits="userSpaceOnUse" color-interpolation-filters="sRGB">
<feFlood flood-opacity="0" result="BackgroundImageFix"/>
<feColorMatrix in="SourceAlpha" type="matrix" values="0 0 0 0 0 0 0 0 0 0 0 0 0 0 0 0 0 0 127 0" result="hardAlpha"/>
<feOffset dy="4"/>
<feGaussianBlur stdDeviation="2"/>
<feComposite in2="hardAlpha" operator="out"/>
<feColorMatrix type="matrix" values="0 0 0 0 0 0 0 0 0 0 0 0 0 0 0 0 0 0 0.25 0"/>
<feBlend mode="normal" in2="BackgroundImageFix" result="effect1_dropShadow_50_3"/>
<feBlend mode="normal" in="SourceGraphic" in2="effect1_dropShadow_50_3" result="shape"/>
</filter>
<linearGradient id="paint0_linear_50_3" x1="729.49" y1="3" x2="729.49" y2="683" gradientUnits="userSpaceOnUse">
<stop stop-color="white" stop-opacity="0.65"/>
<stop offset="1" stop-color="white"/>
</linearGradient>
</defs>
</svg>
