<svg width="852" height="296" viewBox="0 0 852 296" fill="none" xmlns="http://www.w3.org/2000/svg">
<path fill-rule="evenodd" clip-rule="evenodd" d="M345.491 0C370.428 0 392.268 14.143 404.343 35.3184C421.214 21.2141 443.06 12.7059 466.923 12.7059C520.36 12.7059 563.679 55.3705 563.679 108C563.679 114.693 562.979 121.225 561.646 127.528C575.19 115.781 592.661 108.706 611.733 108.706C653.45 108.706 687.511 142.56 689.56 185.115C697.448 180.986 706.294 178.551 715.678 178.279C745.496 177.415 770.967 198.665 777.858 227.858C785.682 221.327 795.667 217.412 806.544 217.412C831.649 217.412 852 238.27 852 264C852 272.779 849.631 280.99 845.512 288H28.414C26.8382 282.585 26 276.909 26 271.059C26 251.869 35.0194 234.542 49.5138 222.213C49.4233 220.625 49.3774 219.024 49.3774 217.412C49.3774 173.387 83.6125 137.619 126.09 136.951C140.213 116.439 163.414 103.059 189.642 103.059C194.212 103.059 198.692 103.465 203.047 104.245C212.798 76.3432 238.006 56.4706 267.566 56.4706C271.22 56.4706 274.808 56.7743 278.308 57.3592C285.173 24.5356 312.645 0 345.491 0Z" fill="url(#paint0_linear_50_7)"/>
<g filter="url(#filter0_d_50_7)">
<mask id="path-2-inside-1_50_7" fill="white">
<path fill-rule="evenodd" clip-rule="evenodd" d="M323.491 0C348.428 0 370.268 14.143 382.343 35.3184C399.214 21.2141 421.06 12.7059 444.923 12.7059C498.36 12.7059 541.679 55.3705 541.679 108C541.679 114.693 540.979 121.225 539.646 127.528C553.19 115.781 570.661 108.706 589.733 108.706C631.45 108.706 665.511 142.56 667.56 185.115C675.448 180.986 684.294 178.551 693.678 178.279C723.496 177.415 748.967 198.665 755.858 227.858C763.682 221.327 773.667 217.412 784.544 217.412C809.649 217.412 830 238.27 830 264C830 272.779 827.631 280.99 823.512 288H6.41404C4.83815 282.585 4 276.909 4 271.059C4 251.869 13.0194 234.542 27.5138 222.213C27.4233 220.625 27.3774 219.024 27.3774 217.412C27.3774 173.387 61.6125 137.619 104.09 136.951C118.213 116.439 141.414 103.059 167.642 103.059C172.212 103.059 176.692 103.465 181.047 104.245C190.798 76.3432 216.006 56.4706 245.566 56.4706C249.22 56.4706 252.808 56.7743 256.308 57.3592C263.173 24.5356 290.645 0 323.491 0Z"/>
</mask>
<path fill-rule="evenodd" clip-rule="evenodd" d="M323.491 0C348.428 0 370.268 14.143 382.343 35.3184C399.214 21.2141 421.06 12.7059 444.923 12.7059C498.36 12.7059 541.679 55.3705 541.679 108C541.679 114.693 540.979 121.225 539.646 127.528C553.19 115.781 570.661 108.706 589.733 108.706C631.45 108.706 665.511 142.56 667.56 185.115C675.448 180.986 684.294 178.551 693.678 178.279C723.496 177.415 748.967 198.665 755.858 227.858C763.682 221.327 773.667 217.412 784.544 217.412C809.649 217.412 830 238.27 830 264C830 272.779 827.631 280.99 823.512 288H6.41404C4.83815 282.585 4 276.909 4 271.059C4 251.869 13.0194 234.542 27.5138 222.213C27.4233 220.625 27.3774 219.024 27.3774 217.412C27.3774 173.387 61.6125 137.619 104.09 136.951C118.213 116.439 141.414 103.059 167.642 103.059C172.212 103.059 176.692 103.465 181.047 104.245C190.798 76.3432 216.006 56.4706 245.566 56.4706C249.22 56.4706 252.808 56.7743 256.308 57.3592C263.173 24.5356 290.645 0 323.491 0Z" fill="url(#paint1_linear_50_7)" shape-rendering="crispEdges"/>
<path d="M382.343 35.3184L381.475 35.8138L382.067 36.8527L382.985 36.0856L382.343 35.3184ZM539.646 127.528L538.667 127.321L538.051 130.235L540.301 128.284L539.646 127.528ZM667.56 185.115L666.561 185.163L666.636 186.728L668.023 186.001L667.56 185.115ZM693.678 178.279L693.707 179.279L693.678 178.279ZM755.858 227.858L754.885 228.088L755.257 229.663L756.499 228.626L755.858 227.858ZM823.512 288V289H824.085L824.374 288.507L823.512 288ZM6.41404 288L5.45388 288.279L5.66359 289H6.41404V288ZM27.5138 222.213L28.1617 222.975L28.5405 222.653L28.5122 222.156L27.5138 222.213ZM104.09 136.951L104.106 137.951L104.622 137.942L104.914 137.518L104.09 136.951ZM181.047 104.245L180.87 105.229L181.709 105.38L181.991 104.575L181.047 104.245ZM256.308 57.3592L256.143 58.3455L257.09 58.5038L257.287 57.5639L256.308 57.3592ZM383.212 34.823C370.977 13.3679 348.823 -1 323.491 -1V1C348.033 1 369.559 14.9181 381.475 35.8138L383.212 34.823ZM444.923 11.7059C420.818 11.7059 398.747 20.3011 381.702 34.5512L382.985 36.0856C399.681 22.1271 421.301 13.7059 444.923 13.7059V11.7059ZM542.679 108C542.679 54.8039 498.898 11.7059 444.923 11.7059V13.7059C497.822 13.7059 540.679 55.9371 540.679 108H542.679ZM540.624 127.735C541.971 121.364 542.679 114.763 542.679 108H540.679C540.679 114.623 539.986 121.086 538.667 127.321L540.624 127.735ZM589.733 107.706C570.408 107.706 552.707 114.876 538.991 126.773L540.301 128.284C553.673 116.686 570.914 109.706 589.733 109.706V107.706ZM668.559 185.067C666.486 142.01 632.015 107.706 589.733 107.706V109.706C630.886 109.706 664.537 143.11 666.561 185.163L668.559 185.067ZM693.649 177.28C684.109 177.556 675.114 180.032 667.096 184.229L668.023 186.001C675.781 181.94 684.48 179.547 693.707 179.279L693.649 177.28ZM756.832 227.629C749.841 198.016 723.983 176.4 693.649 177.28L693.707 179.279C723.009 178.429 748.093 199.315 754.885 228.088L756.832 227.629ZM784.544 216.412C773.422 216.412 763.213 220.417 755.217 227.091L756.499 228.626C764.152 222.238 773.912 218.412 784.544 218.412V216.412ZM831 264C831 237.741 810.224 216.412 784.544 216.412V218.412C809.073 218.412 829 238.799 829 264H831ZM824.374 288.507C828.581 281.347 831 272.961 831 264H829C829 272.597 826.68 280.634 822.65 287.493L824.374 288.507ZM6.41404 289H823.512V287H6.41404V289ZM3 271.059C3 277.005 3.85202 282.775 5.45388 288.279L7.37421 287.721C5.82428 282.395 5 276.812 5 271.059H3ZM26.8659 221.452C12.1757 233.947 3 251.542 3 271.059H5C5 252.197 13.8632 235.138 28.1617 222.975L26.8659 221.452ZM26.3774 217.412C26.3774 219.043 26.4238 220.663 26.5154 222.27L28.5122 222.156C28.4227 220.587 28.3774 219.005 28.3774 217.412H26.3774ZM104.075 135.951C61.0222 136.628 26.3774 172.87 26.3774 217.412H28.3774C28.3774 173.904 62.2029 138.61 104.106 137.951L104.075 135.951ZM167.642 102.059C141.063 102.059 117.563 115.62 103.267 136.384L104.914 137.518C118.863 117.259 141.765 104.059 167.642 104.059V102.059ZM181.223 103.261C176.81 102.471 172.272 102.059 167.642 102.059V104.059C172.153 104.059 176.573 104.46 180.87 105.229L181.223 103.261ZM245.566 55.4706C215.535 55.4706 189.978 75.6572 180.103 103.915L181.991 104.575C191.618 77.0292 216.477 57.4706 245.566 57.4706V55.4706ZM256.473 56.3729C252.918 55.7789 249.276 55.4706 245.566 55.4706V57.4706C249.165 57.4706 252.697 57.7696 256.143 58.3455L256.473 56.3729ZM323.491 -1C290.12 -1 262.28 23.9205 255.329 57.1545L257.287 57.5639C264.066 25.1507 291.171 1 323.491 1V-1Z" fill="black" mask="url(#path-2-inside-1_50_7)"/>
</g>
<defs>
<filter id="filter0_d_50_7" x="0" y="0" width="834" height="296" filterUnits="userSpaceOnUse" color-interpolation-filters="sRGB">
<feFlood flood-opacity="0" result="BackgroundImageFix"/>
<feColorMatrix in="SourceAlpha" type="matrix" values="0 0 0 0 0 0 0 0 0 0 0 0 0 0 0 0 0 0 127 0" result="hardAlpha"/>
<feOffset dy="4"/>
<feGaussianBlur stdDeviation="2"/>
<feComposite in2="hardAlpha" operator="out"/>
<feColorMatrix type="matrix" values="0 0 0 0 0 0 0 0 0 0 0 0 0 0 0 0 0 0 0.25 0"/>
<feBlend mode="normal" in2="BackgroundImageFix" result="effect1_dropShadow_50_7"/>
<feBlend mode="normal" in="SourceGraphic" in2="effect1_dropShadow_50_7" result="shape"/>
</filter>
<linearGradient id="paint0_linear_50_7" x1="439" y1="0" x2="439" y2="288" gradientUnits="userSpaceOnUse">
<stop stop-color="#F178B6" stop-opacity="0.63"/>
<stop offset="1" stop-color="#4B3A50" stop-opacity="0.31"/>
</linearGradient>
<linearGradient id="paint1_linear_50_7" x1="417" y1="0" x2="417" y2="288" gradientUnits="userSpaceOnUse">
<stop stop-color="white" stop-opacity="0.67"/>
<stop offset="0.796875" stop-color="white"/>
</linearGradient>
</defs>
</svg>
