<svg width="41" height="41" viewBox="0 0 41 41" fill="none" xmlns="http://www.w3.org/2000/svg">
<path d="M20.1764 0.386108C9.09332 0.386108 0.108643 9.37079 0.108643 20.4539C0.108643 31.537 9.09332 40.5217 20.1764 40.5217C31.2595 40.5217 40.2442 31.537 40.2442 20.4539C40.2442 9.37079 31.2595 0.386108 20.1764 0.386108ZM32.4745 32.7519C29.425 35.7923 25.3529 37.5884 21.0515 37.7903C16.7501 37.9922 12.5277 36.5855 9.20681 33.8442C5.88597 31.1029 3.70467 27.2234 3.08794 22.9617C2.47121 18.7 3.46323 14.3613 5.8707 10.7911C8.27817 7.22081 11.9286 4.67475 16.1108 3.64898C20.2929 2.62322 24.7072 3.19123 28.4934 5.24234C32.2797 7.29345 35.1666 10.6807 36.5918 14.7442C38.017 18.8076 37.8783 23.2561 36.2028 27.2228C35.3295 29.2898 34.0633 31.1675 32.4745 32.7519Z" fill="white"/>
<path d="M10.6709 19.2019L12.563 21.0939L18.8386 14.8184V30.4878H21.5143V14.8184L27.7899 21.0939L29.6819 19.2019L20.1764 9.69647L10.6709 19.2019Z" fill="white"/>
</svg>
