<svg width="1460" height="694" viewBox="0 0 1460 694" fill="none" xmlns="http://www.w3.org/2000/svg">
<g filter="url(#filter0_d_50_4)">
<mask id="path-1-outside-1_50_4" maskUnits="userSpaceOnUse" x="4" y="0" width="1452" height="686" fill="black">
<rect fill="white" x="4" width="1452" height="686"/>
<path fill-rule="evenodd" clip-rule="evenodd" d="M561.11 157.251C561.037 155.343 561 153.426 561 151.5C561 69.4857 627.71 3 710 3C730.273 3 749.6 7.0352 767.218 14.3437C844.742 19.5763 906 83.9084 906 162.5C906 164.426 905.963 166.343 905.89 168.251C949.08 183.207 980 223.34 980 270.5C980 286.854 976.282 302.364 969.623 316.271C1034.71 332.185 1083 390.722 1083 460.5C1083 464.794 1082.82 469.044 1082.46 473.246C1090.24 471.772 1098.28 471 1106.5 471C1162.98 471 1210.81 507.424 1227.07 557.704C1249.3 544.552 1275.27 537 1303 537C1384.45 537 1450.64 602.139 1451.98 683H7.80189C7.27173 677.905 7 672.734 7 667.5C7 585.486 73.7096 519 156 519C187.356 519 216.449 528.653 240.452 545.14L240.536 544.892C240.577 544.772 240.618 544.652 240.659 544.532C236.331 530.62 234 515.831 234 500.5C234 428.791 284.998 368.954 352.818 355.048C350.32 344.267 349 333.037 349 321.5C349 239.486 415.71 173 498 173C508.074 173 517.914 173.996 527.427 175.896C537.353 167.896 548.727 161.539 561.11 157.251Z"/>
</mask>
<path fill-rule="evenodd" clip-rule="evenodd" d="M561.11 157.251C561.037 155.343 561 153.426 561 151.5C561 69.4857 627.71 3 710 3C730.273 3 749.6 7.0352 767.218 14.3437C844.742 19.5763 906 83.9084 906 162.5C906 164.426 905.963 166.343 905.89 168.251C949.08 183.207 980 223.34 980 270.5C980 286.854 976.282 302.364 969.623 316.271C1034.71 332.185 1083 390.722 1083 460.5C1083 464.794 1082.82 469.044 1082.46 473.246C1090.24 471.772 1098.28 471 1106.5 471C1162.98 471 1210.81 507.424 1227.07 557.704C1249.3 544.552 1275.27 537 1303 537C1384.45 537 1450.64 602.139 1451.98 683H7.80189C7.27173 677.905 7 672.734 7 667.5C7 585.486 73.7096 519 156 519C187.356 519 216.449 528.653 240.452 545.14L240.536 544.892C240.577 544.772 240.618 544.652 240.659 544.532C236.331 530.62 234 515.831 234 500.5C234 428.791 284.998 368.954 352.818 355.048C350.32 344.267 349 333.037 349 321.5C349 239.486 415.71 173 498 173C508.074 173 517.914 173.996 527.427 175.896C537.353 167.896 548.727 161.539 561.11 157.251Z" fill="url(#paint0_linear_50_4)" shape-rendering="crispEdges"/>
<path d="M561.11 157.251L562.091 160.086L564.192 159.358L564.107 157.137L561.11 157.251ZM767.218 14.3437L766.068 17.1147L766.523 17.3037L767.016 17.3369L767.218 14.3437ZM905.89 168.251L902.893 168.137L902.808 170.358L904.909 171.086L905.89 168.251ZM969.623 316.271L966.917 314.975L965.321 318.307L968.91 319.185L969.623 316.271ZM1082.46 473.246L1079.47 472.991L1079.13 476.928L1083.02 476.193L1082.46 473.246ZM1227.07 557.704L1224.21 558.627L1225.37 562.196L1228.59 560.286L1227.07 557.704ZM1451.98 683V686H1455.03L1454.98 682.95L1451.98 683ZM7.80189 683L4.818 683.31L5.09788 686H7.80189V683ZM240.452 545.14L238.753 547.613L242.019 549.856L243.293 546.104L240.452 545.14ZM240.536 544.892L237.697 543.924L237.695 543.927L240.536 544.892ZM240.659 544.532L243.496 545.509L243.816 544.58L243.524 543.641L240.659 544.532ZM352.818 355.048L353.421 357.987L356.435 357.369L355.741 354.371L352.818 355.048ZM527.427 175.896L526.84 178.838L528.216 179.112L529.31 178.231L527.427 175.896ZM558 151.5C558 153.464 558.038 155.419 558.112 157.366L564.107 157.137C564.036 155.267 564 153.388 564 151.5H558ZM710 0C626.062 0 558 67.8194 558 151.5H564C564 71.1521 629.357 6 710 6V0ZM768.367 11.5727C750.392 4.11561 730.674 0 710 0V6C729.872 6 748.809 9.95479 766.068 17.1147L768.367 11.5727ZM909 162.5C909 82.3107 846.5 16.6881 767.42 11.3505L767.016 17.3369C842.985 22.4645 903 85.5061 903 162.5H909ZM908.888 168.366C908.962 166.419 909 164.464 909 162.5H903C903 164.388 902.964 166.267 902.893 168.137L908.888 168.366ZM983 270.5C983 221.98 951.19 180.763 906.872 165.416L904.909 171.086C946.969 185.651 977 224.7 977 270.5H983ZM972.328 317.566C979.176 303.265 983 287.314 983 270.5H977C977 286.394 973.387 301.462 966.917 314.975L972.328 317.566ZM1086 460.5C1086 389.301 1036.73 329.59 970.335 313.357L968.91 319.185C1032.69 334.78 1080 392.143 1080 460.5H1086ZM1085.45 473.5C1085.81 469.215 1086 464.879 1086 460.5H1080C1080 464.708 1079.82 468.874 1079.47 472.991L1085.45 473.5ZM1106.5 468C1098.09 468 1089.87 468.789 1081.9 470.298L1083.02 476.193C1090.62 474.754 1098.47 474 1106.5 474V468ZM1229.92 556.781C1213.26 505.273 1164.29 468 1106.5 468V474C1161.66 474 1208.35 509.574 1224.21 558.627L1229.92 556.781ZM1303 534C1274.71 534 1248.23 541.703 1225.54 555.122L1228.59 560.286C1250.38 547.4 1275.82 540 1303 540V534ZM1454.98 682.95C1453.61 600.445 1386.08 534 1303 534V540C1382.82 540 1447.67 603.832 1448.98 683.05L1454.98 682.95ZM7.80189 686H1451.98V680H7.80189V686ZM4 667.5C4 672.838 4.27712 678.113 4.818 683.31L10.7858 682.69C10.2663 677.698 10 672.63 10 667.5H4ZM156 516C72.0622 516 4 583.819 4 667.5H10C10 587.152 75.3569 522 156 522V516ZM242.15 542.667C217.663 525.847 187.981 516 156 516V522C186.731 522 215.235 531.459 238.753 547.613L242.15 542.667ZM237.695 543.927L237.611 544.176L243.293 546.104L243.377 545.856L237.695 543.927ZM237.823 543.556C237.78 543.679 237.738 543.801 237.697 543.924L243.376 545.859C243.416 545.743 243.456 545.626 243.496 545.509L237.823 543.556ZM231 500.5C231 516.137 233.378 531.225 237.795 545.424L243.524 543.641C239.284 530.014 237 515.525 237 500.5H231ZM352.216 352.109C283.034 366.294 231 427.332 231 500.5H237C237 430.251 286.961 371.614 353.421 357.987L352.216 352.109ZM346 321.5C346 333.267 347.346 344.724 349.896 355.725L355.741 354.371C353.294 343.811 352 332.808 352 321.5H346ZM498 170C414.062 170 346 237.819 346 321.5H352C352 241.152 417.357 176 498 176V170ZM528.014 172.954C518.309 171.016 508.272 170 498 170V176C507.876 176 517.519 176.977 526.84 178.838L528.014 172.954ZM560.128 154.416C547.416 158.818 535.737 165.345 525.545 173.56L529.31 178.231C538.969 170.447 550.038 164.26 562.091 160.086L560.128 154.416Z" fill="#4B3A50" fill-opacity="0.31" mask="url(#path-1-outside-1_50_4)"/>
</g>
<defs>
<filter id="filter0_d_50_4" x="0" y="0" width="1459.03" height="694" filterUnits="userSpaceOnUse" color-interpolation-filters="sRGB">
<feFlood flood-opacity="0" result="BackgroundImageFix"/>
<feColorMatrix in="SourceAlpha" type="matrix" values="0 0 0 0 0 0 0 0 0 0 0 0 0 0 0 0 0 0 127 0" result="hardAlpha"/>
<feOffset dy="4"/>
<feGaussianBlur stdDeviation="2"/>
<feComposite in2="hardAlpha" operator="out"/>
<feColorMatrix type="matrix" values="0 0 0 0 0 0 0 0 0 0 0 0 0 0 0 0 0 0 0.25 0"/>
<feBlend mode="normal" in2="BackgroundImageFix" result="effect1_dropShadow_50_4"/>
<feBlend mode="normal" in="SourceGraphic" in2="effect1_dropShadow_50_4" result="shape"/>
</filter>
<linearGradient id="paint0_linear_50_4" x1="729.49" y1="3" x2="729.49" y2="683" gradientUnits="userSpaceOnUse">
<stop stop-color="#4B3A50" stop-opacity="0.53"/>
<stop offset="1" stop-color="#F178B6" stop-opacity="0.63"/>
</linearGradient>
</defs>
</svg>
