<svg width="725" height="296" viewBox="0 0 725 296" fill="none" xmlns="http://www.w3.org/2000/svg">
<path fill-rule="evenodd" clip-rule="evenodd" d="M506.509 0C481.572 0 459.732 14.143 447.657 35.3184C430.786 21.2141 408.94 12.7059 385.077 12.7059C331.64 12.7059 288.321 55.3705 288.321 108C288.321 114.693 289.021 121.225 290.354 127.528C276.81 115.781 259.339 108.706 240.267 108.706C198.55 108.706 164.489 142.56 162.44 185.115C154.552 180.986 145.706 178.551 136.322 178.279C106.504 177.415 81.0327 198.665 74.1417 227.858C66.3179 221.327 56.3331 217.412 45.4559 217.412C20.3513 217.412 0 238.27 0 264C0 272.779 2.36908 280.99 6.48773 288H823.586C825.162 282.585 826 276.909 826 271.059C826 251.869 816.981 234.542 802.486 222.213C802.577 220.625 802.623 219.024 802.623 217.412C802.623 173.387 768.387 137.619 725.91 136.951C711.787 116.439 688.586 103.059 662.358 103.059C657.788 103.059 653.308 103.465 648.953 104.245C639.202 76.3432 613.994 56.4706 584.434 56.4706C580.78 56.4706 577.192 56.7743 573.692 57.3592C566.827 24.5356 539.355 0 506.509 0Z" fill="url(#paint0_linear_34_65)"/>
<g filter="url(#filter0_d_34_65)">
<mask id="path-2-inside-1_34_65" fill="white">
<path fill-rule="evenodd" clip-rule="evenodd" d="M528.509 0C503.572 0 481.732 14.143 469.657 35.3184C452.786 21.2141 430.94 12.7059 407.077 12.7059C353.64 12.7059 310.321 55.3705 310.321 108C310.321 114.693 311.021 121.225 312.354 127.528C298.81 115.781 281.339 108.706 262.267 108.706C220.55 108.706 186.489 142.56 184.44 185.115C176.552 180.986 167.706 178.551 158.322 178.279C128.504 177.415 103.033 198.665 96.1417 227.858C88.3179 221.327 78.3331 217.412 67.4559 217.412C42.3513 217.412 22 238.27 22 264C22 272.779 24.3691 280.99 28.4877 288H845.586C847.162 282.585 848 276.909 848 271.059C848 251.869 838.981 234.542 824.486 222.213C824.577 220.625 824.623 219.024 824.623 217.412C824.623 173.387 790.387 137.619 747.91 136.951C733.787 116.439 710.586 103.059 684.358 103.059C679.788 103.059 675.308 103.465 670.953 104.245C661.202 76.3432 635.994 56.4706 606.434 56.4706C602.78 56.4706 599.192 56.7743 595.692 57.3592C588.827 24.5356 561.355 0 528.509 0Z"/>
</mask>
<path fill-rule="evenodd" clip-rule="evenodd" d="M528.509 0C503.572 0 481.732 14.143 469.657 35.3184C452.786 21.2141 430.94 12.7059 407.077 12.7059C353.64 12.7059 310.321 55.3705 310.321 108C310.321 114.693 311.021 121.225 312.354 127.528C298.81 115.781 281.339 108.706 262.267 108.706C220.55 108.706 186.489 142.56 184.44 185.115C176.552 180.986 167.706 178.551 158.322 178.279C128.504 177.415 103.033 198.665 96.1417 227.858C88.3179 221.327 78.3331 217.412 67.4559 217.412C42.3513 217.412 22 238.27 22 264C22 272.779 24.3691 280.99 28.4877 288H845.586C847.162 282.585 848 276.909 848 271.059C848 251.869 838.981 234.542 824.486 222.213C824.577 220.625 824.623 219.024 824.623 217.412C824.623 173.387 790.387 137.619 747.91 136.951C733.787 116.439 710.586 103.059 684.358 103.059C679.788 103.059 675.308 103.465 670.953 104.245C661.202 76.3432 635.994 56.4706 606.434 56.4706C602.78 56.4706 599.192 56.7743 595.692 57.3592C588.827 24.5356 561.355 0 528.509 0Z" fill="url(#paint1_linear_34_65)" shape-rendering="crispEdges"/>
<path d="M469.657 35.3184L470.525 35.8138L469.933 36.8527L469.015 36.0856L469.657 35.3184ZM312.354 127.528L313.333 127.321L313.949 130.235L311.699 128.284L312.354 127.528ZM184.44 185.115L185.439 185.163L185.364 186.728L183.977 186.001L184.44 185.115ZM158.322 178.279L158.293 179.279L158.322 178.279ZM96.1417 227.858L97.115 228.088L96.7432 229.663L95.5009 228.626L96.1417 227.858ZM28.4877 288V289H27.9155L27.6255 288.507L28.4877 288ZM845.586 288L846.546 288.279L846.336 289H845.586V288ZM824.486 222.213L823.838 222.975L823.46 222.653L823.488 222.156L824.486 222.213ZM747.91 136.951L747.894 137.951L747.378 137.942L747.086 137.518L747.91 136.951ZM670.953 104.245L671.13 105.229L670.291 105.38L670.009 104.575L670.953 104.245ZM595.692 57.3592L595.857 58.3455L594.91 58.5038L594.713 57.5639L595.692 57.3592ZM468.788 34.823C481.023 13.3679 503.177 -1 528.509 -1V1C503.967 1 482.441 14.9181 470.525 35.8138L468.788 34.823ZM407.077 11.7059C431.182 11.7059 453.253 20.3011 470.298 34.5512L469.015 36.0856C452.319 22.1271 430.699 13.7059 407.077 13.7059V11.7059ZM309.321 108C309.321 54.8039 353.102 11.7059 407.077 11.7059V13.7059C354.178 13.7059 311.321 55.9371 311.321 108H309.321ZM311.376 127.735C310.029 121.364 309.321 114.763 309.321 108H311.321C311.321 114.623 312.014 121.086 313.333 127.321L311.376 127.735ZM262.267 107.706C281.592 107.706 299.293 114.876 313.009 126.773L311.699 128.284C298.327 116.686 281.086 109.706 262.267 109.706V107.706ZM183.441 185.067C185.514 142.01 219.985 107.706 262.267 107.706V109.706C221.114 109.706 187.463 143.11 185.439 185.163L183.441 185.067ZM158.351 177.28C167.891 177.556 176.886 180.032 184.904 184.229L183.977 186.001C176.219 181.94 167.52 179.547 158.293 179.279L158.351 177.28ZM95.1685 227.629C102.159 198.016 128.017 176.4 158.351 177.28L158.293 179.279C128.991 178.429 103.907 199.315 97.115 228.088L95.1685 227.629ZM67.4559 216.412C78.5782 216.412 88.7875 220.417 96.7825 227.091L95.5009 228.626C87.8483 222.238 78.0879 218.412 67.4559 218.412V216.412ZM21 264C21 237.741 41.776 216.412 67.4559 216.412V218.412C42.9266 218.412 23 238.799 23 264H21ZM27.6255 288.507C23.4186 281.347 21 272.961 21 264H23C23 272.597 25.3196 280.634 29.3499 287.493L27.6255 288.507ZM845.586 289H28.4877V287H845.586V289ZM849 271.059C849 277.005 848.148 282.775 846.546 288.279L844.626 287.721C846.176 282.395 847 276.812 847 271.059H849ZM825.134 221.452C839.824 233.947 849 251.542 849 271.059H847C847 252.197 838.137 235.138 823.838 222.975L825.134 221.452ZM825.623 217.412C825.623 219.043 825.576 220.663 825.485 222.27L823.488 222.156C823.577 220.587 823.623 219.005 823.623 217.412H825.623ZM747.925 135.951C790.978 136.628 825.623 172.87 825.623 217.412H823.623C823.623 173.904 789.797 138.61 747.894 137.951L747.925 135.951ZM684.358 102.059C710.937 102.059 734.437 115.62 748.733 136.384L747.086 137.518C733.137 117.259 710.235 104.059 684.358 104.059V102.059ZM670.777 103.261C675.19 102.471 679.728 102.059 684.358 102.059V104.059C679.847 104.059 675.427 104.46 671.13 105.229L670.777 103.261ZM606.434 55.4706C636.465 55.4706 662.022 75.6572 671.897 103.915L670.009 104.575C660.382 77.0292 635.523 57.4706 606.434 57.4706V55.4706ZM595.527 56.3729C599.082 55.7789 602.724 55.4706 606.434 55.4706V57.4706C602.835 57.4706 599.303 57.7696 595.857 58.3455L595.527 56.3729ZM528.509 -1C561.88 -1 589.72 23.9205 596.671 57.1545L594.713 57.5639C587.934 25.1507 560.829 1 528.509 1V-1Z" fill="black" mask="url(#path-2-inside-1_34_65)"/>
</g>
<defs>
<filter id="filter0_d_34_65" x="18" y="0" width="834" height="296" filterUnits="userSpaceOnUse" color-interpolation-filters="sRGB">
<feFlood flood-opacity="0" result="BackgroundImageFix"/>
<feColorMatrix in="SourceAlpha" type="matrix" values="0 0 0 0 0 0 0 0 0 0 0 0 0 0 0 0 0 0 127 0" result="hardAlpha"/>
<feOffset dy="4"/>
<feGaussianBlur stdDeviation="2"/>
<feComposite in2="hardAlpha" operator="out"/>
<feColorMatrix type="matrix" values="0 0 0 0 0 0 0 0 0 0 0 0 0 0 0 0 0 0 0.25 0"/>
<feBlend mode="normal" in2="BackgroundImageFix" result="effect1_dropShadow_34_65"/>
<feBlend mode="normal" in="SourceGraphic" in2="effect1_dropShadow_34_65" result="shape"/>
</filter>
<linearGradient id="paint0_linear_34_65" x1="413" y1="0" x2="413" y2="288" gradientUnits="userSpaceOnUse">
<stop stop-color="#F178B6" stop-opacity="0.63"/>
<stop offset="1" stop-color="#4B3A50" stop-opacity="0.31"/>
</linearGradient>
<linearGradient id="paint1_linear_34_65" x1="435" y1="0" x2="435" y2="288" gradientUnits="userSpaceOnUse">
<stop stop-color="white" stop-opacity="0.67"/>
<stop offset="0.796875" stop-color="white"/>
</linearGradient>
</defs>
</svg>
