<svg width="159" height="186" viewBox="0 0 159 186" fill="none" xmlns="http://www.w3.org/2000/svg">
<g filter="url(#filter0_d_94_33)">
<path d="M43.8769 10.5067C43.8769 4.70402 49.3322 0 56.0615 0C62.7909 0 68.2462 4.70402 68.2462 10.5067V34.704C68.2462 40.5067 62.7909 45.2108 56.0615 45.2108C49.3322 45.2108 43.8769 40.5067 43.8769 34.704V10.5067Z" fill="#F178B6"/>
<path d="M78.5846 10.5067C78.5846 4.70402 84.0399 0 90.7692 0C97.4986 0 102.954 4.70402 102.954 10.5067V34.704C102.954 40.5067 97.4986 45.2108 90.7692 45.2108C84.0399 45.2108 78.5846 40.5067 78.5846 34.704V10.5067Z" fill="#F178B6"/>
<path d="M4 87.0495C4 55.5023 33.6581 29.9283 70.2433 29.9283H81.7567C118.342 29.9283 148 55.5023 148 87.0495C148 111.419 125.089 131.175 96.8279 131.175H55.1721C26.9105 131.175 4 111.419 4 87.0495Z" fill="#F178B6"/>
<path d="M66.7692 134.359C66.7692 130.139 70.7367 126.717 75.6308 126.717H76.3692C81.2633 126.717 85.2308 130.139 85.2308 134.359V142H66.7692V134.359Z" fill="#F178B6"/>
</g>
<g filter="url(#filter1_d_94_33)">
<path d="M84.7692 176.306C85.6085 177.416 87.1755 177.648 88.2691 176.823C89.3627 175.998 89.5688 174.43 88.7294 173.32L84.7692 176.306ZM94.1864 73.0358C102.503 82.4326 103.902 90.2877 102.277 97.4976C100.579 105.034 95.5414 112.172 90.0216 119.985C84.6444 127.597 78.8368 135.82 76.6551 145.032C74.4135 154.495 76.0316 164.752 84.7692 176.306L88.7294 173.32C80.8119 162.849 79.6512 154.122 81.5131 146.261C83.4349 138.147 88.613 130.704 94.1099 122.923C99.4642 115.344 105.189 107.365 107.147 98.6741C109.179 89.6572 107.129 80.1763 97.8968 69.7442L94.1864 73.0358Z" fill="white"/>
</g>
<g filter="url(#filter2_d_94_33)">
<path d="M50.8769 10.5067C50.8769 4.70402 56.3322 0 63.0615 0C69.7909 0 75.2462 4.70402 75.2462 10.5067V34.704C75.2462 40.5067 69.7909 45.2108 63.0615 45.2108C56.3322 45.2108 50.8769 40.5067 50.8769 34.704V10.5067Z" fill="#FFE4F2"/>
<path d="M85.5846 10.5067C85.5846 4.70402 91.0399 0 97.7692 0C104.499 0 109.954 4.70402 109.954 10.5067V34.704C109.954 40.5067 104.499 45.2108 97.7692 45.2108C91.0399 45.2108 85.5846 40.5067 85.5846 34.704V10.5067Z" fill="#FFE4F2"/>
<path d="M11 87.0495C11 55.5023 40.6581 29.9283 77.2433 29.9283H88.7567C125.342 29.9283 155 55.5023 155 87.0495C155 111.419 132.089 131.175 103.828 131.175H62.1721C33.9105 131.175 11 111.419 11 87.0495Z" fill="#FFE4F2"/>
<path d="M73.7692 134.359C73.7692 130.139 77.7367 126.717 82.6308 126.717H83.3692C88.2633 126.717 92.2308 130.139 92.2308 134.359V142H73.7692V134.359Z" fill="#FFE4F2"/>
</g>
<g filter="url(#filter3_i_94_33)">
<path d="M57 13.5C57 10.4624 59.4624 8 62.5 8V8C65.5376 8 68 10.4624 68 13.5V36C68 37.6569 66.6569 39 65 39H60C58.3431 39 57 37.6569 57 36V13.5Z" fill="url(#paint0_linear_94_33)"/>
</g>
<g filter="url(#filter4_i_94_33)">
<path d="M93 13C93 10.2386 95.2386 8 98 8V8C100.761 8 103 10.2386 103 13V36C103 37.6569 101.657 39 100 39H96C94.3431 39 93 37.6569 93 36V13Z" fill="url(#paint1_linear_94_33)"/>
</g>
<ellipse cx="50.0769" cy="73.3756" rx="7.07692" ry="6.16096" fill="#F178B6"/>
<ellipse cx="116.6" cy="74.7446" rx="7.07692" ry="6.16096" fill="#F178B6"/>
<g filter="url(#filter5_b_94_33)">
<ellipse cx="59.9846" cy="65.8455" rx="7.07692" ry="6.84552" fill="#4B3A50"/>
</g>
<ellipse cx="108.108" cy="65.8455" rx="7.07692" ry="6.84552" fill="#4B3A50"/>
<path d="M75.554 65.8455V65.8455C80.1785 70.6915 87.9141 70.6915 92.5386 65.8455V65.8455" stroke="#4B3A50" stroke-width="2" stroke-linecap="round"/>
<g filter="url(#filter6_d_94_33)">
<path d="M113.765 116.715L122.295 113.76C127.946 111.802 132.269 107.776 134.153 102.718L136.996 95.0827" stroke="white" stroke-width="10" stroke-linecap="round"/>
</g>
<g filter="url(#filter7_d_94_33)">
<path d="M142.323 82.6606V82.6606C144.131 79.9837 144.204 76.5852 142.508 74.0016L142.186 73.5117" stroke="white" stroke-width="10" stroke-linecap="round"/>
</g>
<defs>
<filter id="filter0_d_94_33" x="0" y="0" width="152" height="150" filterUnits="userSpaceOnUse" color-interpolation-filters="sRGB">
<feFlood flood-opacity="0" result="BackgroundImageFix"/>
<feColorMatrix in="SourceAlpha" type="matrix" values="0 0 0 0 0 0 0 0 0 0 0 0 0 0 0 0 0 0 127 0" result="hardAlpha"/>
<feOffset dy="4"/>
<feGaussianBlur stdDeviation="2"/>
<feComposite in2="hardAlpha" operator="out"/>
<feColorMatrix type="matrix" values="0 0 0 0 0 0 0 0 0 0 0 0 0 0 0 0 0 0 0.25 0"/>
<feBlend mode="normal" in2="BackgroundImageFix" result="effect1_dropShadow_94_33"/>
<feBlend mode="normal" in="SourceGraphic" in2="effect1_dropShadow_94_33" result="shape"/>
</filter>
<filter id="filter1_d_94_33" x="71.7466" y="69.7441" width="40.1174" height="115.573" filterUnits="userSpaceOnUse" color-interpolation-filters="sRGB">
<feFlood flood-opacity="0" result="BackgroundImageFix"/>
<feColorMatrix in="SourceAlpha" type="matrix" values="0 0 0 0 0 0 0 0 0 0 0 0 0 0 0 0 0 0 127 0" result="hardAlpha"/>
<feOffset dy="4"/>
<feGaussianBlur stdDeviation="2"/>
<feComposite in2="hardAlpha" operator="out"/>
<feColorMatrix type="matrix" values="0 0 0 0 0 0 0 0 0 0 0 0 0 0 0 0 0 0 0.25 0"/>
<feBlend mode="normal" in2="BackgroundImageFix" result="effect1_dropShadow_94_33"/>
<feBlend mode="normal" in="SourceGraphic" in2="effect1_dropShadow_94_33" result="shape"/>
</filter>
<filter id="filter2_d_94_33" x="7" y="0" width="152" height="150" filterUnits="userSpaceOnUse" color-interpolation-filters="sRGB">
<feFlood flood-opacity="0" result="BackgroundImageFix"/>
<feColorMatrix in="SourceAlpha" type="matrix" values="0 0 0 0 0 0 0 0 0 0 0 0 0 0 0 0 0 0 127 0" result="hardAlpha"/>
<feOffset dy="4"/>
<feGaussianBlur stdDeviation="2"/>
<feComposite in2="hardAlpha" operator="out"/>
<feColorMatrix type="matrix" values="0 0 0 0 0.294118 0 0 0 0 0.227451 0 0 0 0 0.313726 0 0 0 0.56 0"/>
<feBlend mode="normal" in2="BackgroundImageFix" result="effect1_dropShadow_94_33"/>
<feBlend mode="normal" in="SourceGraphic" in2="effect1_dropShadow_94_33" result="shape"/>
</filter>
<filter id="filter3_i_94_33" x="57" y="8" width="11" height="35" filterUnits="userSpaceOnUse" color-interpolation-filters="sRGB">
<feFlood flood-opacity="0" result="BackgroundImageFix"/>
<feBlend mode="normal" in="SourceGraphic" in2="BackgroundImageFix" result="shape"/>
<feColorMatrix in="SourceAlpha" type="matrix" values="0 0 0 0 0 0 0 0 0 0 0 0 0 0 0 0 0 0 127 0" result="hardAlpha"/>
<feOffset dy="4"/>
<feGaussianBlur stdDeviation="2"/>
<feComposite in2="hardAlpha" operator="arithmetic" k2="-1" k3="1"/>
<feColorMatrix type="matrix" values="0 0 0 0 0 0 0 0 0 0 0 0 0 0 0 0 0 0 0.25 0"/>
<feBlend mode="normal" in2="shape" result="effect1_innerShadow_94_33"/>
</filter>
<filter id="filter4_i_94_33" x="93" y="8" width="10" height="35" filterUnits="userSpaceOnUse" color-interpolation-filters="sRGB">
<feFlood flood-opacity="0" result="BackgroundImageFix"/>
<feBlend mode="normal" in="SourceGraphic" in2="BackgroundImageFix" result="shape"/>
<feColorMatrix in="SourceAlpha" type="matrix" values="0 0 0 0 0 0 0 0 0 0 0 0 0 0 0 0 0 0 127 0" result="hardAlpha"/>
<feOffset dy="4"/>
<feGaussianBlur stdDeviation="2"/>
<feComposite in2="hardAlpha" operator="arithmetic" k2="-1" k3="1"/>
<feColorMatrix type="matrix" values="0 0 0 0 0 0 0 0 0 0 0 0 0 0 0 0 0 0 0.25 0"/>
<feBlend mode="normal" in2="shape" result="effect1_innerShadow_94_33"/>
</filter>
<filter id="filter5_b_94_33" x="48.9077" y="55" width="22.1538" height="21.691" filterUnits="userSpaceOnUse" color-interpolation-filters="sRGB">
<feFlood flood-opacity="0" result="BackgroundImageFix"/>
<feGaussianBlur in="BackgroundImageFix" stdDeviation="2"/>
<feComposite in2="SourceAlpha" operator="in" result="effect1_backgroundBlur_94_33"/>
<feBlend mode="normal" in="SourceGraphic" in2="effect1_backgroundBlur_94_33" result="shape"/>
</filter>
<filter id="filter6_d_94_33" x="104.439" y="90.4296" width="41.8845" height="38.9387" filterUnits="userSpaceOnUse" color-interpolation-filters="sRGB">
<feFlood flood-opacity="0" result="BackgroundImageFix"/>
<feColorMatrix in="SourceAlpha" type="matrix" values="0 0 0 0 0 0 0 0 0 0 0 0 0 0 0 0 0 0 127 0" result="hardAlpha"/>
<feOffset dy="4"/>
<feGaussianBlur stdDeviation="2"/>
<feComposite in2="hardAlpha" operator="out"/>
<feColorMatrix type="matrix" values="0 0 0 0 0 0 0 0 0 0 0 0 0 0 0 0 0 0 0.25 0"/>
<feBlend mode="normal" in2="BackgroundImageFix" result="effect1_dropShadow_94_33"/>
<feBlend mode="normal" in="SourceGraphic" in2="effect1_dropShadow_94_33" result="shape"/>
</filter>
<filter id="filter7_d_94_33" x="133.139" y="68.5579" width="19.6382" height="27.0566" filterUnits="userSpaceOnUse" color-interpolation-filters="sRGB">
<feFlood flood-opacity="0" result="BackgroundImageFix"/>
<feColorMatrix in="SourceAlpha" type="matrix" values="0 0 0 0 0 0 0 0 0 0 0 0 0 0 0 0 0 0 127 0" result="hardAlpha"/>
<feOffset dy="4"/>
<feGaussianBlur stdDeviation="2"/>
<feComposite in2="hardAlpha" operator="out"/>
<feColorMatrix type="matrix" values="0 0 0 0 0 0 0 0 0 0 0 0 0 0 0 0 0 0 0.25 0"/>
<feBlend mode="normal" in2="BackgroundImageFix" result="effect1_dropShadow_94_33"/>
<feBlend mode="normal" in="SourceGraphic" in2="effect1_dropShadow_94_33" result="shape"/>
</filter>
<linearGradient id="paint0_linear_94_33" x1="62.5" y1="10.7125" x2="62.5" y2="39" gradientUnits="userSpaceOnUse">
<stop stop-color="#F178B6"/>
<stop offset="1" stop-color="#F178B6" stop-opacity="0"/>
</linearGradient>
<linearGradient id="paint1_linear_94_33" x1="98" y1="8" x2="98" y2="39" gradientUnits="userSpaceOnUse">
<stop stop-color="#F178B6"/>
<stop offset="1" stop-color="#F178B6" stop-opacity="0"/>
</linearGradient>
</defs>
</svg>
