<svg width="58" height="53" viewBox="0 0 58 53" fill="none" xmlns="http://www.w3.org/2000/svg">
<path d="M12.8642 52.467H0.95024V17.4378H12.8642V52.467ZM6.90002 12.6595C3.09085 12.6595 0 9.77761 0 6.29979C0 2.82198 3.08879 0 6.90002 0C10.7112 0 13.8 2.8201 13.8 6.29979C13.8 9.77761 10.7092 12.6595 6.90002 12.6595ZM57.4536 52.467H45.5664V35.4152C45.5664 31.3509 45.4761 26.1398 39.3724 26.1398C33.1784 26.1398 32.2281 30.5546 32.2281 35.1229V52.467H20.3265V17.4378H31.752V22.216H31.9182C33.5088 19.4634 37.3939 16.559 43.1898 16.559C55.2473 16.559 57.4639 23.8088 57.4639 33.2248V52.467H57.4536Z" fill="#B996DB"/>
</svg>
